<?xml version="1.0" standalone="no"?><!DOCTYPE svg PUBLIC "-//W3C//DTD SVG 1.1//EN" "http://www.w3.org/Graphics/SVG/1.1/DTD/svg11.dtd"><svg t="1732178925356" class="icon" viewBox="0 0 1024 1024" version="1.1" xmlns="http://www.w3.org/2000/svg" p-id="1729" xmlns:xlink="http://www.w3.org/1999/xlink" width="200" height="200"><path d="M514.90039063 497.8671875c-113.22070313 0-202.65820313-90.01757813-202.65820313-203.87109375S401.6796875 90.125 514.90039063 90.125c113.16796875 0 202.65820313 90.01757813 202.65820312 203.87109375 0 109.00195313-89.49023438 203.87109375-202.65820313 203.87109375z m113.16796874 254.44335938C618.20703125 770.55664063 562.30859375 933.875 486.84570312 933.875c-61.43554688 0-178.98046875 0-221.53710937-4.8515625 0 0-122.34375-4.90429688-122.34375-85.16601563 0 0-4.90429688-118.70507813 70.61132813-203.87109374 0 0 80.26171875-104.15039063 216.68554687-104.15039063l249.5390625 9.22851563s-31.90429688 170.6484375-51.73242188 207.24609374z m86.58984375-0.52734376h86.85351563c43.98046875 0 79.62890625 35.38476563 79.62890625 79.1015625 0 43.6640625-35.6484375 79.1015625-79.62890625 79.1015625h-86.85351563c-43.98046875 0-79.62890625-35.4375-79.62890625-79.1015625 0-43.71679688 35.6484375-79.1015625 79.62890625-79.1015625z m14.50195313-129.46289062h55.265625c27.94921875 0 50.625 22.51757813 50.625 50.30859375 0 27.84375-22.67578125 50.36132813-50.625 50.36132813h-55.265625a50.51953125 50.51953125 0 0 1-50.67773438-50.36132813c0-27.79101563 22.67578125-50.30859375 50.625-50.30859375z" fill="#007AFF" p-id="1730"></path></svg>