<?xml version="1.0" standalone="no"?><!DOCTYPE svg PUBLIC "-//W3C//DTD SVG 1.1//EN" "http://www.w3.org/Graphics/SVG/1.1/DTD/svg11.dtd"><svg t="1733227329806" class="icon" viewBox="0 0 2218 1024" version="1.1" xmlns="http://www.w3.org/2000/svg" p-id="14300" xmlns:xlink="http://www.w3.org/1999/xlink" width="433.203125" height="200"><path d="M615.595 514.048s110.421-22.528 126.293-9.045l53.93 401.408-90.111 11.093-90.112-403.456z m42.666-221.013h63.147l18.09 155.648H680.96l-22.528-155.648z m-72.021 15.872l58.539-5.12 18.09 152.234-51.2 8.534-25.6-155.648z m153.259-189.44s128.512-13.654 133.12 0l63.146 757.418h-98.133l-98.133-757.589z m225.45 399.189h124.075v407.893h-90.283L964.95 518.656z m62.123-207.53h61.952v153.258h-61.952V311.125z m-75.605 0h54.101v153.258h-54.101V311.125zM205.14 620.031L171.35 0C151.211 18.09 0 67.584 0 67.584 51.712 245.76 121.685 987.477 121.685 987.477c355.158 11.264 502.955-144.042 512-180.394a133.29 133.29 0 0 0 0-65.366C547.84 599.723 205.312 620.032 205.312 620.032zM312.32 888.32l-22.187-176.47 164.011 68.95-141.653 107.52z m1450.837-146.603c-85.674-141.994-428.373-121.685-428.373-121.685L1300.821 0c-20.138 18.09-171.008 67.584-171.008 67.584C1181.525 245.76 1251.5 987.477 1251.5 987.477c354.986 11.264 502.784-144.042 511.658-180.394a133.29 133.29 0 0 0 0-65.366z m-321.194 146.774l-22.016-176.811 164.01 68.95-141.653 107.52z m303.274-374.443s110.422-22.528 126.294-9.045l53.93 401.408-90.282 11.264-89.942-403.627z m42.667-221.013h63.147l18.09 155.648h-58.538l-22.528-155.648z m-72.021 15.872l58.538-5.12 18.091 152.234-51.2 8.534-25.6-155.648z m153.258-189.44s128.512-13.654 133.12 0l63.147 757.418h-98.133l-98.134-757.589z m225.451 399.189h124.075v407.893h-90.283l-33.792-407.893z m62.123-207.53h61.952v153.258h-61.952V311.125z m-75.606 0h54.102v153.258h-54.102V311.125z" fill="#FB6B8A" p-id="14301"></path></svg>