<?xml version="1.0" standalone="no"?><!DOCTYPE svg PUBLIC "-//W3C//DTD SVG 1.1//EN" "http://www.w3.org/Graphics/SVG/1.1/DTD/svg11.dtd"><svg t="1733227256184" class="icon" viewBox="0 0 1024 1024" version="1.1" xmlns="http://www.w3.org/2000/svg" p-id="12353" xmlns:xlink="http://www.w3.org/1999/xlink" width="200" height="200"><path d="M512 512m-512 0a512 512 0 1 0 1024 0 512 512 0 1 0-1024 0Z" fill="#F4518C" p-id="12354"></path><path d="M725.307077 300.386462h-109.646769l49.703384-47.931077a18.589538 18.589538 0 0 0 0-28.120616 20.283077 20.283077 0 0 0-29.184 0l-83.88923 80.935385h-82.274462L386.048 224.334769c-6.892308-8.270769-17.132308-9.885538-27.411692-4.883692-1.693538 0-1.693538 1.614769-3.465846 3.268923a18.589538 18.589538 0 0 0 0 28.120615l51.396923 49.545847H296.96c-60.061538 0-109.686154 47.891692-109.686154 105.708307v262.577231c0 56.044308 49.624615 103.975385 109.686154 103.975385h17.132308c0.118154 19.101538 16.147692 34.579692 35.958154 34.73723 18.825846 0 35.958154-16.620308 35.958153-34.73723h253.636923a36.115692 36.115692 0 0 0 39.384616 33.004307c18.865231-1.614769 32.492308-14.887385 34.264615-33.004307h13.666462c59.982769 0 109.686154-47.931077 109.686154-105.708308v-262.577231c-1.693538-57.816615-51.396923-103.975385-111.379693-103.975384z m-3.387077 407.827692H303.773538c-22.212923 0-39.384615-18.116923-41.038769-39.542154l-1.811692-267.579077c0-21.504 18.904615-39.660308 41.156923-39.660308h418.067692c22.291692 0 39.424 18.116923 41.117539 39.660308l1.693538 267.579077c-1.693538 23.04-18.825846 39.542154-41.038769 39.542154z" fill="#FFFFFF" opacity=".15" p-id="12355"></path><path d="M439.138462 452.253538l10.24 49.545847-137.058462 24.772923-10.24-49.545846 137.058462-24.772924z m131.977846 49.545847l10.24-49.545847 137.058461 24.772924-10.24 49.545846-137.058461-24.812308z m27.411692 104.054153c0 1.654154 0 5.001846-1.693538 6.656-8.585846 18.116923-27.411692 29.656615-49.703385 31.389539-13.784615 0-27.411692-6.656-35.997539-16.620308-10.24 9.964308-22.291692 16.620308-36.036923 16.620308a62.897231 62.897231 0 0 1-49.624615-31.389539c0-1.732923-1.772308-3.387077-1.772308-6.656 0-6.616615 5.159385-11.618462 12.051693-13.23323h1.693538c5.159385 0 8.546462 1.732923 10.24 6.616615 0 0 13.784615 18.116923 25.718154 18.116923 24.024615 0 24.024615-19.731692 37.730461-34.658461 15.36 16.541538 15.36 34.658462 37.691077 34.658461 15.438769 0 25.678769-18.116923 25.67877-18.116923 1.693538-3.268923 6.892308-6.616615 10.24-6.616615 6.892308-1.654154 12.091077 3.347692 13.784615 9.885538v3.347692z" fill="#FFFFFF" opacity=".15" p-id="12356"></path><path d="M711.876923 582.813538c-4.804923-4.608-11.185231-7.68-15.950769-10.752a196.174769 196.174769 0 0 0-51.2-16.974769c-17.644308-3.072-36.627692-6.144-55.886769-4.608-3.150769 0-4.765538 0-7.955693 1.536a1111.709538 1111.709538 0 0 1-7.955692-192.512c-20.834462 6.262154-38.360615 15.478154-57.580308 21.622154 19.219692 93.892923 30.365538 187.864615 38.321231 283.293539h6.380308c14.454154 0 27.175385 0 41.550769-3.072 17.644308-1.536 35.170462-6.144 52.775385-10.83077 17.565538-6.144 33.476923-12.288 46.316307-24.576 7.995077-6.144 14.375385-12.288 15.95077-21.622154 4.804923-7.68 3.190154-15.36-4.765539-21.504zM614.4 635.155692c-3.150769-18.432-4.765538-35.446154-7.955692-52.342154 19.101538 4.608 36.627692 12.288 54.272 18.432-14.414769 12.406154-30.365538 23.158154-46.316308 33.87077zM352.492308 581.277538a112.915692 112.915692 0 0 0-17.644308-10.752c-15.950769-7.758769-33.555692-12.366769-51.121231-15.438769a202.752 202.752 0 0 0-52.657231-3.072c-3.190154 0-4.804923 0-7.995076 1.536-8.073846-64.590769-12.839385-129.339077-9.649231-194.048-19.140923 4.726154-38.360615 15.478154-55.886769 21.622154 19.219692 93.892923 30.365538 187.864615 38.360615 283.293539h6.380308a330.673231 330.673231 0 0 0 78.296615-9.216 170.732308 170.732308 0 0 0 59.076923-26.19077c8.034462-6.144 15.990154-13.824 19.180308-23.158154 4.804923-9.216 1.575385-16.896-6.340923-24.576z m-97.516308 53.878154c-3.190154-18.432-4.804923-35.446154-7.995077-52.342154 6.380308 0 47.931077 15.36 52.696615 18.432-12.760615 12.406154-28.672 23.158154-44.701538 33.87077z m196.529231-58.486154c-1.575385-13.902769-1.575385-26.190769-3.190154-40.014769a481.673846 481.673846 0 0 1-3.190154-47.734154c-1.575385-13.902769-1.575385-29.262769-3.190154-43.086769-1.575385-15.478154-1.575385-30.838154-3.190154-46.276923 0-4.608 0-4.608-4.804923-4.608h-1.693538c-6.340923 0-12.721231 0-17.526154 1.536-4.765538 0-9.570462 1.536-14.336 1.536 14.336 76.996923 22.331077 155.529846 30.286769 234.062769 9.649231 0 19.219692 1.536 28.750769 1.536v-6.144a146.668308 146.668308 0 0 1-7.916307-50.806154z m359.384615 12.288c-1.575385-15.36-3.190154-29.262769-3.190154-44.622769-1.575385-15.36-3.190154-32.374154-4.804923-47.734154-1.575385-15.36-1.575385-29.262769-3.150769-44.622769-1.614769-18.510769-3.190154-35.446154-3.190154-53.956923 0-4.608 0-4.608-4.804923-4.608h-14.454154c-6.340923 0-12.721231 1.536-20.716307 3.072 14.375385 76.996923 22.449231 155.529846 30.404923 234.062769 9.570462 0 19.101538 1.536 28.672 1.536v-1.575384l-4.765539-41.55077z m-49.506461-32.334769c-1.575385-12.288-3.190154-26.112-6.380308-38.518154 0-3.072-1.575385-3.072-3.190154-3.072h-15.950769c-6.459077 1.575385-12.839385 1.575385-20.795077 3.072 7.955692 41.590154 17.526154 83.140923 25.6 124.731077 9.531077-1.575385 19.101538-1.575385 28.672-3.072-1.575385-10.752-1.575385-19.968-3.150769-29.184-1.614769-17.014154-3.229538-35.446154-4.804923-53.956923z m-359.384616 0c-1.575385-12.288-3.190154-24.576-4.804923-38.518154 0-3.072-1.575385-3.072-4.765538-3.072-8.073846 0-16.029538 1.575385-22.449231 1.575385-4.726154 0-7.955692 1.496615-12.721231 3.032615 7.955692 41.590154 17.526154 83.140923 25.481846 124.731077 9.688615-1.575385 19.259077-1.575385 28.790154-3.072v-1.575384c-1.575385-10.712615-1.575385-23.000615-3.150769-33.87077-3.229538-16.896-4.804923-33.792-6.380308-49.230769z m102.163693-32.374154c0-4.608 0-4.608-4.726154-4.608-11.185231-1.536-22.331077 0-35.209846 0 4.804923 43.126154 7.995077 84.676923 12.878769 126.267077h28.672v-4.608c0-38.518154 0-76.996923-1.575385-117.051077z m361.117538 75.460923c0-24.576-1.693538-49.230769-1.693538-75.460923 0-4.608 0-4.608-4.804924-4.608-11.145846-1.536-23.906462 0-35.052307 0 4.765538 43.126154 7.955692 84.676923 12.760615 126.267077h28.750769v-3.072c1.614769-14.336 1.614769-28.750769 0-43.126154zM370.018462 468.873846c1.575385 9.216 3.150769 20.086154 3.150769 29.262769l1.614769 1.575385c4.765538 0 11.145846 0 16.029538-1.575385 0-6.144-1.693538-10.752-1.693538-15.438769-1.575385-10.752-1.575385-19.968-3.150769-30.72l-1.614769-1.575384a33.792 33.792 0 0 0-17.526154 0v3.111384c3.150769 6.144 3.150769 10.752 3.150769 15.36z m365.883076 30.798769c4.726154 0 11.145846 0 15.911385-1.536 0-6.144-1.575385-10.752-1.575385-16.974769-1.614769-9.216-1.614769-19.968-3.190153-29.184a1.575385 1.575385 0 0 0-1.575385-1.575384 34.264615 34.264615 0 0 0-17.683692 0v1.575384c1.575385 15.36 3.190154 30.72 6.380307 46.158769 0 1.575385 1.693538 1.575385 1.693539 1.575385z m-249.26523 1.575385c0 1.496615 0 1.496615 1.575384 1.496615h15.95077v-43.086769c0-3.072 0-3.072-3.15077-4.608-4.804923 0-9.570462 0-14.375384-1.575384v47.734153z m360.999384 3.032615h15.95077v-46.158769l-1.575385-1.575384c-6.419692 0-11.185231-1.496615-17.565539-1.496616v1.536c0 15.36 0 30.798769 1.575385 46.158769 0 0.393846 0.196923 0.787692 0.472615 1.10277a1.614769 1.614769 0 0 0 1.142154 0.43323z m-480.807384-3.072c1.575385 0 1.575385-1.536 1.575384-3.072 0-4.608 0-9.216-1.575384-12.288-1.575385-9.294769-3.190154-20.086154-4.804923-29.262769 0-1.575385 0-3.072-3.15077-1.575384-4.804923 0-9.570462 1.575385-14.454153 1.575384 3.268923 15.36 6.459077 32.334769 9.64923 47.694769 4.765538-1.536 7.955692-3.072 12.760616-3.072z m357.769846 0a3.308308 3.308308 0 0 0 3.190154-3.072c-1.575385-9.216-1.575385-16.974769-3.15077-26.190769 0-4.608-1.614769-10.752-3.190153-15.36 0-1.575385 0-3.072-1.575385-3.072-4.804923 0-9.609846 1.536-15.990154 1.536 3.190154 15.36 6.380308 32.334769 9.570462 47.694769 3.190154 0 7.995077 0 11.145846-1.536z m113.467077 3.072l1.575384-1.536v-43.086769c-1.575385-1.575385-1.575385-3.072-3.150769-3.072-4.804923 0-11.185231 0-16.029538 1.536 1.693538 15.36 1.693538 32.334769 3.268923 47.694769 4.765538-1.536 9.570462-1.536 14.336-1.536z m-359.384616 0l1.575385-1.536v-43.086769l-1.575385-1.575384c-4.883692 0-11.264 0-16.029538 1.575384 1.575385 15.36 1.575385 32.334769 3.150769 47.694769 4.804923-3.072 7.995077-3.072 12.878769-3.072z" fill="#FFFFFF" p-id="12357"></path></svg>