<?xml version="1.0" standalone="no"?><!DOCTYPE svg PUBLIC "-//W3C//DTD SVG 1.1//EN" "http://www.w3.org/Graphics/SVG/1.1/DTD/svg11.dtd"><svg t="1733226855779" class="icon" viewBox="0 0 1820 1024" version="1.1" xmlns="http://www.w3.org/2000/svg" p-id="4585" xmlns:xlink="http://www.w3.org/1999/xlink" width="355.46875" height="200"><path d="M839.927 438.044v-27.496a221.07 221.07 0 0 0-29.298-2.114c-119.76 0-217.202 95.763-217.202 213.39 0 72.126 36.722 135.993 92.748 174.658a210.423 210.423 0 0 1-58.359-145.256c0-115.94 94.692-210.489 212.11-213.172" fill="#3FBABE" p-id="4586"></path><path d="M845.047 748.648c53.456 0 97.024-41.766 99.034-93.772l0.18-464.478h86.376a157.838 157.838 0 0 1-2.788-29.393H909.871l-0.208 464.479c-1.982 52.006-45.511 93.772-98.996 93.772a99.859 99.859 0 0 1-46.042-11.188 99.556 99.556 0 0 0 80.422 40.6m347.022-400.612v-25.828a165.357 165.357 0 0 1-89.43-26.121 164.864 164.864 0 0 0 89.43 51.93" fill="#3FBABE" p-id="4587"></path><path d="M1102.64 296.107a158.843 158.843 0 0 1-40.354-105.71h-31.649a161.46 161.46 0 0 0 72.06 105.71m-292.03 228.276c-54.727 0-99.215 43.71-99.215 97.45 0 37.386 21.609 69.898 53.173 86.216a95.64 95.64 0 0 1-18.783-56.842c0-53.703 44.487-97.441 99.205-97.441a99.347 99.347 0 0 1 29.307 4.513V439.941a222.815 222.815 0 0 0-29.307-2.086c-1.726 0-3.423 0.076-5.12 0.152v90.87a99.328 99.328 0 0 0-29.298-4.494" fill="#E4004E" p-id="4588"></path><path d="M1192.03 347.97v90.17a284.207 284.207 0 0 1-164.162-51.902v235.52c0 117.636-97.45 213.333-217.24 213.333a218.671 218.671 0 0 1-124.491-38.647 218.491 218.491 0 0 0 158.881 68.077c119.79 0 217.23-95.715 217.23-213.333v-235.5a284.226 284.226 0 0 0 164.172 51.825V351.602a167.196 167.196 0 0 1-34.39-3.603" fill="#E4004E" p-id="4589"></path><path d="M1027.868 621.796V386.304a284.188 284.188 0 0 0 164.163 51.835v-90.074a164.902 164.902 0 0 1-89.392-51.901 161.432 161.432 0 0 1-72.002-105.766h-86.376l-0.18 464.478c-2.01 52.006-45.578 93.772-99.034 93.772a99.622 99.622 0 0 1-80.422-40.6 97.27 97.27 0 0 1-53.173-86.28c0-53.676 44.488-97.442 99.215-97.442a99.85 99.85 0 0 1 29.26 4.523v-90.805c-117.438 2.665-212.11 97.214-212.11 213.163a210.423 210.423 0 0 0 58.358 145.285 218.7 218.7 0 0 0 124.492 38.656c119.75 0 217.201-95.678 217.201-213.333" fill="#231916" p-id="4590"></path></svg>