<?xml version="1.0" standalone="no"?><!DOCTYPE svg PUBLIC "-//W3C//DTD SVG 1.1//EN" "http://www.w3.org/Graphics/SVG/1.1/DTD/svg11.dtd"><svg t="1732179509280" class="icon" viewBox="0 0 1024 1024" version="1.1" xmlns="http://www.w3.org/2000/svg" p-id="4322" xmlns:xlink="http://www.w3.org/1999/xlink" width="200" height="200"><path d="M508.5 511.9m-448 0a448 448 0 1 0 896 0 448 448 0 1 0-896 0Z" fill="#DCF3FF" p-id="4323"></path><path d="M508.5 63.9c247.4 0 448 200.6 448 448s-200.6 448-448 448c-19.7 0-39.1-1.3-58.1-3.7 220-28.5 389.9-216.5 389.9-444.3S670.4 96.2 450.4 67.7c19-2.5 38.4-3.8 58.1-3.8z" fill="#BEE9FF" p-id="4324"></path><path d="M666.2 276.4h-65.6c4.5 0 8.1 3.7 8.1 8.4v716.5c0 4.6-3.6 8.4-8.1 8.4h65.6c4.5 0 8.1-3.7 8.1-8.4V284.8c-0.1-4.6-3.7-8.4-8.1-8.4z" fill="#FFA344" p-id="4325"></path><path d="M259.6 511.9c9.2 0 16.6 7.4 16.6 16.6v116.1c0 9.2-7.4 16.6-16.6 16.6-9.2 0-16.6-7.4-16.6-16.6V528.5c0-9.1 7.4-16.6 16.6-16.6z" fill="#4A80AA" p-id="4326"></path><path d="M320.9 628.1h-89.4c-2.8 0-5.1 2.2-5.1 4.8v56.7c0 2.7 2.3 4.8 5.1 4.8h89.4c2.8 0 5.1-2.2 5.1-4.8v-56.7c0-2.6-2.3-4.8-5.1-4.8z" fill="#61AFF6" p-id="4327"></path><path d="M320.9 628.1h-44.7v66.4h44.7c2.8 0 5.1-2.2 5.1-4.8V633c0-2.7-2.3-4.9-5.1-4.9z" fill="#3D99F6" p-id="4328"></path><path d="M724.8 511.9h-51.1c-8.8 0-16-5.4-16-12.1v-42.2c0-6.7 7.1-12.1 16-12.1h51.1c8.8 0 16 5.4 16 12.1v42.2c0 6.7-7.1 12.1-16 12.1z" fill="#E28086" p-id="4329"></path><path d="M796 628.1H652.4c-6.2 0-11.2-5.7-11.2-12.8V491.5c0-7.1 5-12.8 11.2-12.8H796c6.2 0 11.2 5.7 11.2 12.8v123.8c0 7.1-5 12.8-11.2 12.8z" fill="#D64F57" p-id="4330"></path><path d="M840.3 1009.7H608.1v-448h226.6c3.2 0 5.7 2.7 5.7 6.1v441.9h-0.1z" fill="#E28086" p-id="4331"></path><path d="M840.3 567.8v245.1C779.7 879.7 699.1 928.2 608 948.8v-44.2c124.5-68.5 212.9-194.5 229.5-342.1 1.7 1.1 2.8 3 2.8 5.3z" fill="#CC777D" p-id="4332"></path><path d="M834.8 561.7H774c3 0 5.5 2.7 5.5 6.1v441.9h60.9V567.8c-0.1-3.4-2.5-6.1-5.6-6.1z" fill="#D64F57" p-id="4333"></path><path d="M837.5 562.5c1.7 1 2.8 3 2.8 5.3v245.1c-18.5 20.4-38.9 39.1-60.9 55.8V737.5c30.1-51.6 50.2-109.7 57.7-171.8l0.4-3.2z" fill="#B4464D" p-id="4334"></path><path d="M797.2 668.1H651.4c-5.2 0-9.3-4.1-9.3-9.2v-21.4c0-5.1 4.2-9.2 9.3-9.2h145.7c5.2 0 9.3 4.1 9.3 9.2v21.4c0.1 5.1-4.1 9.2-9.2 9.2zM797.2 759.5H651.4c-5.2 0-9.3-4.1-9.3-9.2v-21.4c0-5.1 4.2-9.2 9.3-9.2h145.7c5.2 0 9.3 4.1 9.3 9.2v21.4c0.1 5.1-4.1 9.2-9.2 9.2zM797.2 850.9H651.4c-5.2 0-9.3-4.1-9.3-9.2v-21.4c0-5.1 4.2-9.2 9.3-9.2h145.7c5.2 0 9.3 4.1 9.3 9.2v21.4c0.1 5.1-4.1 9.2-9.2 9.2z" fill="#F4FAFF" p-id="4335"></path><path d="M797.2 811.1c5.2 0 9.3 4.1 9.3 9.2v21.4c0 5.1-4.2 9.2-9.3 9.2H685.3c14.4-12.4 27.9-25.7 40.6-39.9l71.3 0.1zM797.2 719.7c5.2 0 9.3 4.1 9.3 9.2v21.4c0 5.1-4.2 9.2-9.3 9.2h-31.4c8.5-12.8 16.4-26.1 23.6-39.9l7.8 0.1z" fill="#E2F0FA" p-id="4336"></path><path d="M666.2 1009.7H383.9c-4.5 0-8.2-3.7-8.2-8.3V288c0-4.6 3.7-8.3 8.2-8.3h282.3c4.5 0 8.2 3.7 8.2 8.3v713.4c0 4.6-3.6 8.3-8.2 8.3z" fill="#FFC358" p-id="4337"></path><path d="M674.4 860v68.2c-51.3 20.5-107.3 31.7-165.9 31.7-19.7 0-39.1-1.3-58.1-3.7 84.3-10.9 161.2-45.2 224-96.2z" fill="#FCBA43" p-id="4338"></path><path d="M674.2 860.2v68.1c-21.1 8.4-43 15.3-65.6 20.4v-44.4c23.3-12.8 45.2-27.6 65.6-44.1z" fill="#EE963B" p-id="4339"></path><path d="M686.9 263.1H363.3c-2.2 0-4 1.9-4 4.2v28.2c0 2.3 1.8 4.2 4 4.2h323.6c2.2 0 4-1.9 4-4.2v-28.2c0-2.4-1.8-4.2-4-4.2z" fill="#FFA344" p-id="4340"></path><path d="M452.4 407.1h-38.1c-2.7 0-4.9-2.3-4.9-5.2v-49.6c0-2.9 2.2-5.2 4.9-5.2h38.1c2.7 0 4.9 2.3 4.9 5.2v49.6c0 2.8-2.2 5.2-4.9 5.2zM536.1 407.1H498c-2.7 0-4.9-2.3-4.9-5.2v-49.6c0-2.9 2.2-5.2 4.9-5.2h38.1c2.7 0 4.9 2.3 4.9 5.2v49.6c0 2.8-2.2 5.2-4.9 5.2zM619.8 407.1h-38.1c-2.7 0-4.9-2.3-4.9-5.2v-49.6c0-2.9 2.2-5.2 4.9-5.2h38.1c2.7 0 4.9 2.3 4.9 5.2v49.6c-0.1 2.8-2.2 5.2-4.9 5.2zM452.4 540.9h-38.1c-2.7 0-4.9-2.3-4.9-5.2v-49.6c0-2.9 2.2-5.2 4.9-5.2h38.1c2.7 0 4.9 2.3 4.9 5.2v49.6c0 2.9-2.2 5.2-4.9 5.2zM536.1 540.9H498c-2.7 0-4.9-2.3-4.9-5.2v-49.6c0-2.9 2.2-5.2 4.9-5.2h38.1c2.7 0 4.9 2.3 4.9 5.2v49.6c0 2.9-2.2 5.2-4.9 5.2zM619.8 540.9h-38.1c-2.7 0-4.9-2.3-4.9-5.2v-49.6c0-2.9 2.2-5.2 4.9-5.2h38.1c2.7 0 4.9 2.3 4.9 5.2v49.6c-0.1 2.9-2.2 5.2-4.9 5.2zM452.4 674.7h-38.1c-2.7 0-4.9-2.3-4.9-5.2v-49.6c0-2.9 2.2-5.2 4.9-5.2h38.1c2.7 0 4.9 2.3 4.9 5.2v49.6c0 2.9-2.2 5.2-4.9 5.2zM536.1 674.7H498c-2.7 0-4.9-2.3-4.9-5.2v-49.6c0-2.9 2.2-5.2 4.9-5.2h38.1c2.7 0 4.9 2.3 4.9 5.2v49.6c0 2.9-2.2 5.2-4.9 5.2zM619.8 674.7h-38.1c-2.7 0-4.9-2.3-4.9-5.2v-49.6c0-2.9 2.2-5.2 4.9-5.2h38.1c2.7 0 4.9 2.3 4.9 5.2v49.6c-0.1 2.9-2.2 5.2-4.9 5.2zM536.1 808.5H498c-2.7 0-4.9-2.3-4.9-5.2v-49.6c0-2.9 2.2-5.2 4.9-5.2h38.1c2.7 0 4.9 2.3 4.9 5.2v49.6c0 2.9-2.2 5.2-4.9 5.2zM619.8 808.5h-38.1c-2.7 0-4.9-2.3-4.9-5.2v-49.6c0-2.9 2.2-5.2 4.9-5.2h38.1c2.7 0 4.9 2.3 4.9 5.2v49.6c-0.1 2.9-2.2 5.2-4.9 5.2zM536.1 942.4H498c-2.7 0-4.9-2.3-4.9-5.2v-49.6c0-2.9 2.2-5.2 4.9-5.2h38.1c2.7 0 4.9 2.3 4.9 5.2v49.6c0 2.8-2.2 5.2-4.9 5.2zM619.8 942.4h-38.1c-2.7 0-4.9-2.3-4.9-5.2v-49.6c0-2.9 2.2-5.2 4.9-5.2h38.1c2.7 0 4.9 2.3 4.9 5.2v49.6c-0.1 2.8-2.2 5.2-4.9 5.2z" fill="#F4FAFF" p-id="4341"></path><path d="M541 934.7v2.5c0 2.9-2.2 5.2-4.9 5.2H517c8.1-2.4 16.1-4.9 24-7.7z" fill="#E2F0FA" p-id="4342"></path><path d="M624.6 895.1v42.1c0 2.9-2.2 5.2-4.9 5.2h-38.1c-2.7 0-4.9-2.3-4.9-5.2v-16.9c16.6-7.5 32.6-15.9 47.9-25.2z" fill="#E2F0FA" p-id="4343"></path><path d="M502.2 1009.7H199.5c-3.5 0-6.3-2.8-6.3-6.3V684.1c0-3.5 2.8-6.3 6.3-6.3h302.7c3.5 0 6.3 2.8 6.3 6.3v319.3c0 3.5-2.8 6.3-6.3 6.3z" fill="#61AFF6" p-id="4344"></path><path d="M501.5 677.9h-75.9c3.9 0 7 2.8 7 6.3v319.3c0 3.5-3.1 6.3-7 6.3h75.9c3.9 0 7-2.8 7-6.3V684.1c0-3.4-3.1-6.2-7-6.2z" fill="#3D99F6" p-id="4345"></path><path d="M272.1 766.5h-38.6c-3.4 0-6.2-2.8-6.2-6.3v-25.1c0-3.5 2.8-6.3 6.2-6.3h38.6c3.4 0 6.2 2.8 6.2 6.3v25.1c-0.1 3.5-2.8 6.3-6.2 6.3zM362 766.5h-38.6c-3.4 0-6.2-2.8-6.2-6.3v-25.1c0-3.5 2.8-6.3 6.2-6.3H362c3.4 0 6.2 2.8 6.2 6.3v25.1c-0.1 3.5-2.8 6.3-6.2 6.3zM451.9 766.5h-38.6c-3.4 0-6.2-2.8-6.2-6.3v-25.1c0-3.5 2.8-6.3 6.2-6.3h38.6c3.4 0 6.2 2.8 6.2 6.3v25.1c-0.1 3.5-2.8 6.3-6.2 6.3zM272.1 854.6h-38.6c-3.4 0-6.2-2.8-6.2-6.3v-25.1c0-3.5 2.8-6.3 6.2-6.3h38.6c3.4 0 6.2 2.8 6.2 6.3v25.1c-0.1 3.5-2.8 6.3-6.2 6.3zM362 854.6h-38.6c-3.4 0-6.2-2.8-6.2-6.3v-25.1c0-3.5 2.8-6.3 6.2-6.3H362c3.4 0 6.2 2.8 6.2 6.3v25.1c-0.1 3.5-2.8 6.3-6.2 6.3zM451.9 854.6h-38.6c-3.4 0-6.2-2.8-6.2-6.3v-25.1c0-3.5 2.8-6.3 6.2-6.3h38.6c3.4 0 6.2 2.8 6.2 6.3v25.1c-0.1 3.5-2.8 6.3-6.2 6.3zM362 942.7h-38.6c-3.4 0-6.2-2.8-6.2-6.3v-25.1c0-3.5 2.8-6.3 6.2-6.3H362c3.4 0 6.2 2.8 6.2 6.3v25.1c-0.1 3.5-2.8 6.3-6.2 6.3zM451.9 942.7h-38.6c-3.4 0-6.2-2.8-6.2-6.3v-25.1c0-3.5 2.8-6.3 6.2-6.3h38.6c3.4 0 6.2 2.8 6.2 6.3v25.1c-0.1 3.5-2.8 6.3-6.2 6.3z" fill="#F4FAFF" p-id="4346"></path></svg>