<?xml version="1.0" standalone="no"?><!DOCTYPE svg PUBLIC "-//W3C//DTD SVG 1.1//EN" "http://www.w3.org/Graphics/SVG/1.1/DTD/svg11.dtd"><svg t="1732175522397" class="icon" viewBox="0 0 1280 1024" version="1.1" xmlns="http://www.w3.org/2000/svg" p-id="3884" xmlns:xlink="http://www.w3.org/1999/xlink" width="250" height="200"><path d="M1051.927971 1024H161.047971a105.448727 105.448727 0 0 1-104.308364-106.007273v-116.363636a105.448727 105.448727 0 0 1 104.308364-106.030546H1051.927971a31.045818 31.045818 0 0 1 0 62.068364h-18.385455v204.264727h18.385455a31.045818 31.045818 0 0 1 0 62.068364zM200.588335 752.756364A46.103273 46.103273 0 0 0 160.279971 802.909091v113.780364a46.103273 46.103273 0 0 0 40.331636 50.152727H972.800698v-214.109091z m982.10909-97.373091H417.932335a98.071273 98.071273 0 0 1-97.000728-98.56v-82.827637a98.071273 98.071273 0 0 1 97.000728-98.56h764.834909a31.022545 31.022545 0 0 1 0 62.045091h-15.406546v155.927273h15.406546a30.254545 30.254545 0 0 1 21.597091 9.099636 31.534545 31.534545 0 0 1 8.936727 21.922909 30.836364 30.836364 0 0 1-30.533818 30.952728zM417.932335 437.527273a36.352 36.352 0 0 0-35.933091 36.538182v82.827636a36.398545 36.398545 0 0 0 35.933091 36.538182h688.384V437.527273zM87.273425 426.845091a53.527273 53.527273 0 0 1-51.2-38.330182 54.737455 54.737455 0 0 1 20.712728-61.137454v-265.309091H30.534516A30.836364 30.836364 0 0 1 0.000698 31.022545 30.813091 30.813091 0 0 1 30.534516 0h1218.955637A30.813091 30.813091 0 0 1 1280.000698 31.022545a30.813091 30.813091 0 0 1-30.510545 31.045819h-231.005091v244.596363a30.836364 30.836364 0 0 1-30.533818 31.045818h-695.854546a30.813091 30.813091 0 0 1-30.510545-31.045818V62.068364H117.807244v265.309091a54.807273 54.807273 0 0 1 20.736 61.137454 53.527273 53.527273 0 0 1-51.269819 38.330182z" fill="#8C1515" p-id="3885"></path></svg>