<?xml version="1.0" standalone="no"?><!DOCTYPE svg PUBLIC "-//W3C//DTD SVG 1.1//EN" "http://www.w3.org/Graphics/SVG/1.1/DTD/svg11.dtd"><svg t="1732175786116" class="icon" viewBox="0 0 1024 1024" version="1.1" xmlns="http://www.w3.org/2000/svg" p-id="8415" xmlns:xlink="http://www.w3.org/1999/xlink" width="200" height="200"><path d="M234.527 477.269c7.148-5.367 14.686-8.221 23.5-5.7a29.518 29.518 0 0 1 9.249 4.772l34.342 24.976c10.9 7.973 13.832 17.164 9.681 30.166-3.185 9.974-6.342 19.958-9.684 29.879-0.846 2.512-0.707 4.177 1.37 6.124 36.236 33.958 77.53 60.016 123.243 79.211 0.741 0.311 1.526 0.521 2.851 0.967v-6.082q0-245.492-0.057-490.983c-0.007-13.073 4.149-23.952 15.01-31.486 11.154-7.738 23.263-8.767 35.48-2.7 12.393 6.152 19.05 16.548 19.342 30.322 0.1 4.739 1.844 6.45 5.763 8.146a492.375 492.375 0 0 1 134.9 87.053c19.854 17.906 43.347 23.675 69.28 22.232 23.856-1.327 46.392-8.16 68.741-16.063a39.885 39.885 0 0 1 52.208 26.8c1.958 7 1.617 14.225 1.925 21.349 1.919 44.45 3.625 88.909 5.423 133.365 0.592 14.652 1.357 29.3 1.846 43.953 0.688 20.618-7.893 33.9-26.86 42.317-25.2 11.187-51.336 17.245-79.088 14.815-22.165-1.941-43.124-8.426-61.054-21.3-40.456-29.059-86.166-38.838-134.706-39.69-11.336-0.2-22.652 0.289-33.976 0.815-3.613 0.168-4.267 1.331-4.257 4.649 0.115 36.665 0.073 73.331 0.073 110 0 26.666 0.056 53.332-0.068 80-0.016 3.5 0.609 5.1 4.547 5.909 64.833 13.271 129.008 12.45 192.32-8.426A309.234 309.234 0 0 0 728.23 649.6c2.716-1.25 3.518-2.5 2.7-5.592-5.064-19.151 1.5-38.217 16.858-49.788 15.482-11.661 35.568-12.761 52.505-2.658 2.589 1.544 3.942 1.532 5.986-0.9 25-29.808 40.587-63.777 45.944-102.4a206.058 206.058 0 0 0 0.109-56.285 24.753 24.753 0 0 1-0.218-2.99c-0.078-5.855 3.618-10.143 9.062-10.547a9.7 9.7 0 0 1 10.8 8.809c8.4 66.423-7.883 125.746-51.337 177.117-2.561 3.027-3.176 5.16-1.493 8.97a46.8 46.8 0 0 1-73.046 54.35c-2.71-2.279-4.555-2.527-7.656-1-32.241 15.865-66.4 25.329-101.949 29.951-44.688 5.812-89.089 3.577-133.175-5.377-3.914-0.795-4.343 0.147-4.312 3.613q0.225 25 0 50c-0.026 3 0.617 3.924 3.808 3.9a976.39 976.39 0 0 1 107.793 5.047c39.6 4.15 78.961 9.768 116.51 23.941 11.728 4.427 22.88 10.008 32.026 18.884 15.93 15.46 15.957 36.7-0.061 52.092-12.222 11.745-27.581 17.768-43.3 22.911-28.429 9.3-57.792 14.269-87.379 17.9a1003.018 1003.018 0 0 1-144.663 6.9c-55.183-1.223-110.122-5.168-164.088-17.765-18.658-4.355-36.975-9.78-53.865-19.14a68.855 68.855 0 0 1-14.859-10.9c-15.865-15.489-15.826-36.69 0.206-52.106 10.692-10.282 23.945-16.076 37.658-20.922 27.913-9.864 56.9-14.927 86.106-18.927 16.834-2.306 33.735-4.039 50.7-5.013 2.884-0.166 3.541-1.209 3.531-3.911-0.091-25-0.139-50 0.046-75 0.025-3.439-1.88-4.094-4.243-5.036a434.457 434.457 0 0 1-112.149-65.288c-6.485-5.218-12.657-10.828-18.9-16.338-1.589-1.4-2.671-2.543-4.931-0.669-4.262 3.534-9.484 4.69-14.947 4.7-14.833 0.022-29.667 0.151-44.5-0.032-12.652-0.156-20.5-6.1-24.467-18.172q-6.7-20.366-13.219-40.792c-4.032-12.619-0.982-21.876 9.679-29.732 4.424-3.26 8.785-6.618 13.351-9.668 2.444-1.633 3.123-2.853 1.6-5.814-13.786-26.811-23.386-55.021-27.769-84.928-7.389-50.414 0.625-98.094 25.3-142.818a196.4 196.4 0 0 1 20.065-29.777 6.05 6.05 0 0 0 1.206-6.757c-2.072-5.609-3.811-11.345-5.533-17.076-3.28-10.917-0.173-20.589 8.915-27.451q9.567-7.224 19.4-14.092c9.619-6.7 19.586-6.618 29.293 0.051 3.967 2.725 7.791 7.462 11.883 7.693 4.075 0.23 8.407-4.037 12.621-6.34 20.383-11.137 41.976-19.239 64.275-25.547 6.574-1.86 12.116 0.8 13.747 6.37 1.655 5.65-1.42 10.815-8.06 12.726-22.12 6.365-43.487 14.534-63.693 25.659-2.752 1.515-3.862 2.615-2.432 5.987 2 4.716 1.589 9.8 0.013 14.7-2.5 7.752-4.93 15.527-7.6 23.221-3.784 10.928-12.216 16.978-23.783 17.073-9 0.074-18.514 1.731-26.853-0.643-9.007-2.564-11.861 1.724-15.777 7.479-31.662 46.532-41.585 97.627-32.222 152.755 4.064 23.931 12 46.639 22.59 68.445 0.725 1.479 1.563 2.905 2.49 4.616z m530.533 32.222c13.977-1.781 27.007-6.64 39.862-12.136 9.857-4.214 14.654-11.367 14.154-22.235-1.361-29.576-2.575-59.159-3.8-88.741q-2.087-50.359-4.1-100.722c-0.593-14.416-13.262-23.706-26.718-18.8-26.393 9.624-53.311 16.466-81.473 17.825-4.959-0.319-9.928-0.522-14.875-0.978-22.062-2.031-41.829-9.616-58.772-24.188-6.651-5.721-12.849-11.989-20.134-16.959a7.583 7.583 0 0 0-0.943-1.142 469.08 469.08 0 0 0-105.719-65.734c-4.149-1.869-3.46 0.715-3.46 3.023q0 133.744-0.091 267.489c-0.005 3.911 1.167 4.751 4.815 4.49a379.056 379.056 0 0 1 50.924-0.194c24.025 1.513 47.566 5.359 70.511 12.762 17.384 5.609 33.45 13.886 48.866 23.546 27.177 20.144 57.293 28.503 90.952 22.694zM444.184 875.5l11.816 0.08 12.179 0.931 31.819 0.065h10.157l31.817-0.064 12.18-0.932 11.816-0.076 7.176-0.917 7.844-0.059 6.155-0.94 6.855-0.057 5.143-0.944 5.849-0.065 4.178-0.963 5.783-0.083c4.088-0.588 8.161-1.323 12.266-1.739a461.683 461.683 0 0 0 67.283-12.208c15.618-3.972 31.018-8.906 44.636-17.926 4.766-3.157 9.914-6.31 10.969-12.794a8.163 8.163 0 0 0 0-8.272c0.2-1.627-0.677-2.815-1.515-4.089-3.6-5.483-8.969-8.845-14.547-11.792-28.356-14.983-59.6-19.628-90.616-25-6.771-1.172-13.771-0.759-20.42-2.853l-4.849-0.024-3.2-0.908-5.793-0.088-4.175-0.949-5.846-0.073-5.159-0.927-6.827-0.064-6.163-0.95-7.85-0.061-7.169-0.913-11.822-0.08-13.171-0.942-28.826-0.057c-3.164-0.034-6.328-0.092-9.492-0.09-1.131 0-2.99-0.3-3.113 0.859a63.192 63.192 0 0 0-0.292 11.413c0.193 2.515 3 2.172 4.749 2.8 8.322 3.01 16.537 6.081 22.711 12.944 5.737 6.377 5.7 13.683-0.127 20.081-5.6 6.148-12.782 9.512-20.431 11.962-23.343 7.476-46.973 7.91-70.718 2.15-10.252-2.487-20.109-5.927-27.66-13.922-6.151-6.512-6.206-13.928-0.189-20.414a33.511 33.511 0 0 1 14.865-9.745c5.324-1.594 7.323-4.284 6.756-9.946-0.612-6.118-0.142-6.165-6.214-5.093l-6.826 0.063-5.161 0.928-5.845 0.072-4.181 0.955-5.787 0.081-3.206 0.91-4.848 0.023c-9.083 2.8-18.636 2.877-27.923 4.294a419.2 419.2 0 0 0-50.858 10.778c-14.88 4.205-29.441 9.436-41.9 19.12-9.5 7.384-10.042 18.746-1.025 26.43a58.353 58.353 0 0 0 11.1 7.551c28.32 14.594 59.274 19.557 90.167 24.684 9.448 1.568 18.993 2.557 28.494 3.811l5.785 0.085 4.177 0.961 5.85 0.066 5.142 0.943 6.857 0.058 6.154 0.939 7.845 0.06z m34.9-471.174v-252.4c0-1.832 0.088-3.674-0.062-5.5a14.865 14.865 0 0 0-21.342-12.139c-6.8 3.273-8.63 9.011-8.628 16.033q0.066 240.908 0.034 481.817c0 6.331 0.132 12.666-0.057 18.991-0.092 3.076 0.642 4.847 3.913 5.78 6.711 1.914 13.256 4.405 19.935 6.443 6.164 1.88 6.208 1.756 6.208-4.622q-0.005-127.199-0.006-254.401zM252.165 570.039v0.3h20.475c3.082 0 5.423-0.909 6.486-4.242q6.669-20.894 13.555-41.719c0.909-2.768 0.21-4.782-2.146-6.48q-17.816-12.839-35.551-25.79c-2.363-1.726-4.474-1.668-6.816 0.043q-17.732 12.955-35.544 25.8c-2.352 1.7-2.985 3.694-2.062 6.488q6.8 20.588 13.4 41.245c0.949 2.992 2.61 4.4 5.747 4.377 7.484-0.067 14.97-0.022 22.456-0.022z m196.914 172.5c0 20.49 0.094 40.981-0.085 61.469-0.033 3.763 1.042 4.893 4.778 4.745 7.152-0.283 14.324-0.166 21.485-0.039 2.659 0.047 3.877-0.585 3.871-3.576q-0.118-57.971 0-115.943c0.005-2.677-1.006-3.82-3.479-4.5-7.367-2.023-14.747-4.046-21.985-6.477-3.693-1.241-4.726-0.856-4.682 3.351 0.218 20.326 0.097 40.65 0.097 60.974zM803.064 632.1a26.989 26.989 0 1 0-27.412 26.559 27.222 27.222 0 0 0 27.412-26.559z m-530.7-407.456c3.491 0 7-0.188 10.471 0.051 3.808 0.261 5.811-1.355 6.882-4.932q3-10.011 6.44-19.886c1.1-3.124 0.652-5.333-2.147-7.291-5.99-4.19-11.881-8.524-17.745-12.891-2.486-1.851-4.711-1.9-7.227-0.023q-8.78 6.57-17.739 12.9c-2.528 1.782-3.424 3.783-2.316 6.8 1.315 3.577 2.28 7.281 3.539 10.881 6.057 17.321 1.456 14.017 19.84 14.393z" fill="#343741" p-id="8416"></path><path d="M546.732 133.169a389.31 389.31 0 0 1 38.049 8.5c54.985 15.012 105.562 39.163 151.412 73.1 5.5 4.071 6.923 9.947 3.621 14.683-3.54 5.078-9.337 5.646-15.337 1.466-2.323-1.618-4.587-3.319-6.893-4.962a428.747 428.747 0 0 0-116.813-58.6 398.714 398.714 0 0 0-54.071-13.871 26.137 26.137 0 0 1-3.882-0.94 9.993 9.993 0 0 1-6.663-11.459 10.241 10.241 0 0 1 10.577-7.917z" fill="#343741" p-id="8417"></path><path d="M593.984 771.836l5.159 0.926a4.685 4.685 0 0 0 5.847 0.074l4.174 0.948a4.74 4.74 0 0 0 5.794 0.089l3.2 0.907a3.472 3.472 0 0 0 4.849 0.025c6.648 2.094 13.649 1.681 20.42 2.853 31.021 5.369 62.26 10.013 90.616 25 5.579 2.948 10.943 6.309 14.547 11.792 0.837 1.274 1.716 2.462 1.515 4.09v8.271c-1.055 6.485-6.2 9.637-10.969 12.794-13.618 9.019-29.018 13.954-44.636 17.926a461.683 461.683 0 0 1-67.287 12.207c-4.105 0.416-8.178 1.151-12.265 1.74a4.741 4.741 0 0 0-5.784 0.082l-4.177 0.964a4.674 4.674 0 0 0-5.85 0.064l-5.142 0.945a6.288 6.288 0 0 0-6.856 0.056l-6.154 0.941a7.836 7.836 0 0 0-7.845 0.058l-7.175 0.918a17.254 17.254 0 0 0-11.817 0.075l-12.179 0.933c-7.653-1.86-15.425-0.509-23.137-0.756-2.866-0.092-5.947-1.033-8.681 0.819H500c-3.083-1.818-6.475-0.91-9.674-0.816-7.381 0.217-14.825-1.126-22.146 0.75l-12.18-0.93a17.268 17.268 0 0 0-11.818-0.078l-7.173-0.915a7.842 7.842 0 0 0-7.846-0.06l-6.153-0.938a6.293 6.293 0 0 0-6.857-0.059l-5.141-0.943a4.678 4.678 0 0 0-5.851-0.067l-4.176-0.961a4.747 4.747 0 0 0-5.785-0.086c-9.5-1.254-19.045-2.243-28.494-3.811-30.893-5.127-61.847-10.091-90.167-24.684a58.353 58.353 0 0 1-11.1-7.551c-9.018-7.684-8.477-19.047 1.025-26.43 12.461-9.684 27.022-14.915 41.9-19.12a419.2 419.2 0 0 1 50.861-10.778c9.288-1.418 18.84-1.5 27.923-4.3a3.471 3.471 0 0 0 4.849-0.022l3.2-0.911a4.738 4.738 0 0 0 5.788-0.08l4.18-0.956a4.681 4.681 0 0 0 5.846-0.071l5.16-0.929a6.321 6.321 0 0 0 6.827-0.062c6.072-1.072 5.6-1.025 6.214 5.093 0.567 5.662-1.432 8.352-6.756 9.946a33.511 33.511 0 0 0-14.865 9.745c-6.016 6.486-5.962 13.9 0.189 20.414 7.551 7.994 17.408 11.434 27.66 13.922 23.745 5.76 47.375 5.326 70.718-2.15 7.649-2.45 14.834-5.813 20.431-11.962 5.823-6.4 5.864-13.7 0.127-20.081-6.174-6.863-14.389-9.934-22.711-12.944-1.745-0.631-4.557-0.289-4.749-2.8a63.192 63.192 0 0 1 0.292-11.413c0.123-1.164 1.982-0.858 3.113-0.859 3.164 0 6.328 0.056 9.491 0.09a96.718 96.718 0 0 0 28.826 0.057l13.171 0.941a17.263 17.263 0 0 0 11.823 0.08l7.168 0.913a7.833 7.833 0 0 0 7.851 0.061l6.162 0.949a6.326 6.326 0 0 0 6.831 0.065z" fill="#5A6286" p-id="8418"></path><path d="M674.1 486.8c-15.416-9.66-31.483-17.937-48.866-23.546-22.945-7.4-46.485-11.249-70.511-12.762a379.056 379.056 0 0 0-50.924 0.194c-3.647 0.261-4.82-0.579-4.815-4.49q0.176-133.744 0.091-267.489c0-2.308-0.689-4.892 3.46-3.023a469.08 469.08 0 0 1 105.719 65.734 7.549 7.549 0 0 1 0.942 1.142 22.172 22.172 0 0 0 0.339 3.926q10.01 37.684 20.113 75.343 15.7 58.531 31.453 117.048 6.458 23.971 12.999 47.923z" fill="#F5715A" p-id="8419"></path><path d="M674.1 486.8l-13-47.923q-15.751-58.517-31.453-117.048-10.1-37.659-20.113-75.343a22.172 22.172 0 0 1-0.339-3.926c7.286 4.97 13.484 11.239 20.135 16.959 16.943 14.573 36.709 22.158 58.772 24.188 4.946 0.455 9.916 0.658 14.876 0.978 10.856 35.358 19.92 71.22 30.023 106.79 8.652 30.462 16.957 61.022 25.262 91.581 2.385 8.777 5.419 17.4 6.791 26.437-33.654 5.807-63.77-2.552-90.954-22.693z" fill="#F35A48" p-id="8420"></path><path d="M765.059 509.491c-1.373-9.04-4.406-17.66-6.791-26.437-8.3-30.559-16.61-61.12-25.262-91.581-10.1-35.57-19.167-71.432-30.023-106.79 28.16-1.359 55.079-8.2 81.471-17.825 13.456-4.906 26.125 4.384 26.718 18.8q2.072 50.36 4.1 100.722c1.226 29.582 2.44 59.165 3.8 88.741 0.5 10.868-4.3 18.021-14.154 22.235-12.852 5.495-25.881 10.354-39.859 12.135z" fill="#F5715A" p-id="8421"></path><path d="M479.079 404.328v254.4c0 6.378-0.044 6.5-6.208 4.622-6.679-2.037-13.223-4.529-19.935-6.443-3.272-0.933-4.005-2.7-3.913-5.78 0.189-6.325 0.057-12.66 0.057-18.991q0-240.908-0.034-481.817c0-7.022 1.83-12.76 8.628-16.033a14.865 14.865 0 0 1 21.342 12.139c0.15 1.821 0.062 3.663 0.062 5.5q0.002 126.201 0.001 252.403z" fill="#717B9A" p-id="8422"></path><path d="M252.165 570.039c-7.486 0-14.972-0.044-22.457 0.021-3.136 0.027-4.8-1.385-5.747-4.377q-6.559-20.667-13.4-41.245c-0.923-2.793-0.29-4.79 2.062-6.488q17.805-12.854 35.544-25.8c2.341-1.711 4.452-1.769 6.816-0.043q17.734 12.952 35.551 25.79c2.356 1.7 3.055 3.712 2.146 6.48q-6.841 20.839-13.555 41.719c-1.064 3.333-3.4 4.241-6.486 4.242h-20.475z" fill="#F5715A" p-id="8423"></path><path d="M449.079 742.543c0-20.323 0.118-40.648-0.1-60.969-0.044-4.207 0.989-4.592 4.682-3.351 7.238 2.431 14.618 4.454 21.985 6.477 2.473 0.679 3.485 1.822 3.479 4.5q-0.112 57.971 0 115.943c0.006 2.992-1.212 3.623-3.871 3.576-7.161-0.127-14.333-0.243-21.485 0.039-3.736 0.148-4.811-0.983-4.778-4.745 0.181-20.49 0.088-40.98 0.088-61.47z" fill="#717B9A" p-id="8424"></path><path d="M803.064 632.1a26.989 26.989 0 1 1-26.559-27.412 27.222 27.222 0 0 1 26.559 27.412zM272.362 224.646c-18.383-0.376-13.783 2.928-19.842-14.4-1.259-3.6-2.223-7.3-3.539-10.881-1.108-3.013-0.212-5.014 2.316-6.8q8.963-6.318 17.739-12.9c2.515-1.882 4.741-1.829 7.227 0.023 5.864 4.367 11.755 8.7 17.745 12.891 2.8 1.958 3.242 4.167 2.147 7.291q-3.457 9.861-6.44 19.886c-1.071 3.577-3.074 5.193-6.882 4.932-3.476-0.23-6.98-0.042-10.471-0.042z" fill="#FEE180" p-id="8425"></path><path d="M510.156 876.576c2.734-1.852 5.815-0.91 8.681-0.819 7.712 0.247 15.484-1.1 23.137 0.756zM468.18 876.511c7.321-1.877 14.764-0.534 22.146-0.75 3.2-0.094 6.591-1 9.674 0.816z" fill="#6C718A" p-id="8426"></path><path d="M540.982 768.827a96.718 96.718 0 0 1-28.826-0.057z" fill="#6D728C" p-id="8427"></path><path d="M565.975 769.848a17.263 17.263 0 0 1-11.823-0.08z" fill="#6D7286" p-id="8428"></path><path d="M554.154 875.58a17.254 17.254 0 0 1 11.817-0.075zM444.184 875.5a17.268 17.268 0 0 1 11.818 0.078z" fill="#6D7287" p-id="8429"></path><path d="M573.145 874.586a7.836 7.836 0 0 1 7.845-0.058zM429.165 874.527a7.842 7.842 0 0 1 7.846 0.06z" fill="#6F7387" p-id="8430"></path><path d="M580.994 770.822a7.833 7.833 0 0 1-7.851-0.061z" fill="#6D7287" p-id="8431"></path><path d="M750.109 826.809v-8.271a8.16 8.16 0 0 1 0 8.271z" fill="#6C7189" p-id="8432"></path><path d="M587.144 873.588a6.288 6.288 0 0 1 6.856-0.056zM416.155 873.53a6.293 6.293 0 0 1 6.857 0.059z" fill="#6E7282" p-id="8433"></path><path d="M593.984 771.836a6.326 6.326 0 0 1-6.828-0.065zM423 771.773a6.321 6.321 0 0 1-6.827 0.062z" fill="#6F7385" p-id="8434"></path><path d="M395.2 871.474a4.747 4.747 0 0 1 5.785 0.086zM609.169 871.559a4.741 4.741 0 0 1 5.784-0.082z" fill="#6E7388" p-id="8435"></path><path d="M405.163 872.52a4.678 4.678 0 0 1 5.851 0.067zM599.142 872.586a4.674 4.674 0 0 1 5.85-0.064z" fill="#6C7187" p-id="8436"></path><path d="M614.959 773.873a4.74 4.74 0 0 1-5.794-0.089zM400.99 773.79a4.738 4.738 0 0 1-5.788 0.08z" fill="#6E7388" p-id="8437"></path><path d="M604.99 772.836a4.685 4.685 0 0 1-5.847-0.074zM411.016 772.764a4.681 4.681 0 0 1-5.846 0.071z" fill="#6C7187" p-id="8438"></path><path d="M623.011 774.806a3.472 3.472 0 0 1-4.849-0.025zM392 774.782a3.471 3.471 0 0 1-4.849 0.022z" fill="#6E7287" p-id="8439"></path></svg>