<?xml version="1.0" standalone="no"?><!DOCTYPE svg PUBLIC "-//W3C//DTD SVG 1.1//EN" "http://www.w3.org/Graphics/SVG/1.1/DTD/svg11.dtd"><svg t="1732175609130" class="icon" viewBox="0 0 1120 1024" version="1.1" xmlns="http://www.w3.org/2000/svg" p-id="5725" xmlns:xlink="http://www.w3.org/1999/xlink" width="218.75" height="200"><path d="M581.77291078 38.3608078c30.41617188-61.56747777 80.08366689-61.56747777 110.54578475 0l50.17289975 101.72417591c30.32428013 61.56747777 110.86740573 120.01063567 178.72946878 129.93494551l112.33767382 16.26484096c67.99990069 9.92430981 83.2998784 57.20261932 34.13778808 105.12417092l-81.18636799 79.21069545c-49.25398237 47.92155165-79.94582922 142.43222454-68.32152185 210.15644976l19.11348556 111.78632334c11.67025318 67.72422537-28.57833658 96.94580438-89.36473437 64.96747277l-100.39174544-52.74586892c-60.74045185-32.02427763-160.21327974-32.02427763-220.99967737 0L426.1542192 857.52988242c-60.74045185 31.97833167-100.94309588 2.75675266-89.36473446-64.96747277l19.20537733-111.78632334c11.5783615-67.67827958-19.15943156-162.23489834-68.32152183-210.15644976L206.39508049 391.4089411C157.23298998 343.4873895 172.5329677 296.2090801 240.53286851 286.23882451l112.2917279-16.26484124c67.95395488-9.92430981 148.40518887-68.32152195 178.77541484-129.93494541l50.17289953-101.72417584z" fill="#F5A623" p-id="5726"></path><path d="M280.09227009 481.96826845c19.94051141-40.43237338 52.51613957-40.43237338 72.50259697 0l32.89724917 66.66747021c19.89456542 40.38642757 72.68638025 78.70529058 117.20793706 85.1836596l73.65124388 10.70538971c44.5675026 6.43242307 54.62964995 37.4918371 22.37564299 68.91881827l-53.25127355 51.91884316c-32.25400693 31.42698114-52.3783019 93.45391753-44.79723187 137.8376367l12.54322492 73.28367677c7.62701581 44.42966479-18.74591865 63.58909637-58.58099558 42.63777555l-65.84044442-34.6431925c-39.83507702-20.95132076-105.03227908-20.95132076-144.91330201 0l-65.88639018 34.6431925c-39.83507702 20.95132076-66.16206562 1.79188927-58.58099568-42.63777555l12.58917084-73.32962276c7.58107006-44.33777321-12.58917085-106.36470961-44.79723212-137.79169071l-53.29721944-51.91884316c-32.20806117-31.42698114-22.19185955-62.48639532 22.37564318-68.91881827l73.69718957-10.70538971c44.5675026-6.47836903 97.26742569-44.79723185 117.20793715-85.1836596l32.89724912-66.7134161z" fill="#F8E71C" p-id="5727"></path></svg>